# xmcd CD Database Entry
#
# Track frame offsets:
# 150
# 17947
# 39616
# 64773
# 82740
# 105671
# 132730
# 155018
# 177920
# 195270
#
# Disc length: 2889 seconds
#
# Revision: 2
# Processed by: cddbd v1.4b41PL1 Copyright (c) Steve Scherf et al.
# Submitted via: tcd 2.0b
#
DISCID=800b470a
DTITLE=Patrick O-Hearn - Between Two Worlds
DYEAR=1900
DGENRE=
TTITLE0=Rain Maker
TTITLE1=Sky Juice
TTITLE2=Cape Perpetual
TTITLE3=Gentle Was The Night
TTITLE4=Fire Ritual
TTITLE5=87 Dreams Of A Lifetime
TTITLE6=Dimension D
TTITLE7=Forever The Optomist
TTITLE8=Journey To Yoroba
TTITLE9=Between Two Worlds
EXTD=\t\t\t
EXTT0=
EXTT1=
EXTT2=
EXTT3=
EXTT4=
EXTT5=
EXTT6=
EXTT7=
EXTT8=
EXTT9=
PLAYORDER=
